<svg xmlns="http://www.w3.org/2000/svg" viewBox="0 0 998.71 106"><path d="M818.61,201.82c-77.18-36.81-79.21-42-99.05-43.34-46.56-3-52.87,24.73-99,21.67-48.23-3.19-52.32-34.2-99-36.12-17.41-.71-44.86,10.76-99.05,33.73-75.79,32.12-78,37.79-99.05,38.51-45.48,1.57-47.35-24.33-99.05-21.67-15.15.78-48.86,4.74-82.53,19.28-5,2.17-8.14,3.75-16.52,7.22a382.65,382.65,0,0,1-60.68,20.22A335.67,335.67,0,0,1,1.29,250H1000c-29.49,0-65.29-4.2-82.34-7.22C897.11,239.13,870.66,226.65,818.61,201.82Z" transform="translate(-1.29 -144)" style="fill:#9ac2bb"/></svg>