<svg id="publicdomainvectors.org" xmlns="http://www.w3.org/2000/svg" viewBox="0 0 660.27 660.24"><defs><style>.cls-1,.cls-2{fill:#d2dfef;}.cls-2,.cls-3,.cls-4,.cls-5,.cls-6{fill-rule:evenodd;}.cls-3{fill:#fff;}.cls-4{fill:#564843;}.cls-5{fill:#493c36;}.cls-6{fill:#675954;}</style></defs><rect class="cls-1" x="0.03" width="660.24" height="660.24"/><polygon class="cls-2" points="660.27 113.42 660.27 0 190.29 0 61.93 0 660.27 113.42"/><path class="cls-3" d="M0,427.42v-96a24,24,0,0,1,20,23.63,23.74,23.74,0,0,1-2.71,11.07,31.65,31.65,0,0,1,12.61,6.69,12.81,12.81,0,0,1,19.55,16,23.39,23.39,0,0,1,12.79,5,22.85,22.85,0,0,1,26.16-4,20.7,20.7,0,0,1,40,7.09,17.29,17.29,0,0,1,9.07-2.55,17.59,17.59,0,0,1,6.33,1.18,22.34,22.34,0,0,1,13.86-12.29,21.62,21.62,0,0,1-.42-4.24,21.39,21.39,0,0,1,21.39-21.39h0a22.53,22.53,0,0,1,3.28.25,20,20,0,0,1,39,8.83c-.12.53-.26,1.05-.42,1.57a23.06,23.06,0,0,1,18.15,17.9,25.16,25.16,0,0,1,3-.18,24.42,24.42,0,0,1,20.58,11.27,29.33,29.33,0,0,1,24.22-24.38,25.81,25.81,0,1,1,30.77,15.48,29.3,29.3,0,0,1-51.76,27.48h0a24.42,24.42,0,0,1-45.36,6.05,21.12,21.12,0,0,1-38-4,22.33,22.33,0,0,1-31,4.76,17.44,17.44,0,0,1-30.95-8.76,20.69,20.69,0,0,1-20.12,2.7,22.8,22.8,0,0,1-35.38,11.91A23.48,23.48,0,0,1,27,423.27a31.89,31.89,0,0,1-27,4.15Z" transform="translate(0.03)"/><path class="cls-3" d="M0,0H173.64A128.82,128.82,0,0,1,0,189.67Z" transform="translate(0.03)"/><polygon class="cls-4" points="660.27 294.47 249.71 197.73 229.25 260.98 247.85 309.35 305.52 366.09 285.06 430.27 244.13 473.98 239.48 560.49 184.6 591.18 157.63 644.2 78.57 660.24 660.27 660.24 660.27 294.47"/><polygon class="cls-4" points="660.27 660.24 78.57 660.24 157.63 644.2 184.6 591.18 239.48 560.49 244.13 473.98 285.06 430.27 290.27 413.91 660.27 413.91 660.27 660.24"/><polygon class="cls-5" points="330.15 660.24 78.57 660.24 157.63 644.2 184.6 591.18 239.48 560.49 244.13 473.98 285.06 430.27 290.27 413.91 546.43 413.91 518.52 466.54 535.27 544.67 363.19 622.8 330.15 660.24"/><path class="cls-2" d="M146.9,39.61a24.65,24.65,0,1,1-24.64,24.66h0a24.64,24.64,0,0,1,24.63-24.65Zm43.26,67a9.3,9.3,0,1,1-9.31,9.3,9.3,9.3,0,0,1,9.31-9.3ZM84.58,110.3A13.49,13.49,0,1,1,71.1,123.8v0A13.5,13.5,0,0,1,84.58,110.3Zm0-93a20,20,0,1,1-20,20A20,20,0,0,1,84.58,17.3Zm-54.87,80a18.14,18.14,0,1,1-18.14,18.14h0A18.13,18.13,0,0,1,29.68,97.28h0Zm68.36,84.64A12.09,12.09,0,1,1,86,194h0A12.09,12.09,0,0,1,98.07,181.94Zm32.09-51.16a16.28,16.28,0,1,1-16.28,16.28h0a16.28,16.28,0,0,1,16.26-16.3h0Z" transform="translate(0.03)"/><polygon class="cls-2" points="247.85 309.35 236.69 261.44 255.29 208.66 660.27 294.47 247.85 195.64 227.39 262.38 247.85 309.35"/><polygon class="cls-5" points="236.69 261.44 349.24 343.29 546.43 413.91 290.27 413.91 305.52 366.09 247.85 309.35 236.69 261.44"/><path class="cls-6" d="M244.11,474,319,527.93l87.43.46-77.2-30.72L285,430.27Zm-4.65,86.51,58.59,41.38L184.58,591.18Z" transform="translate(0.03)"/><path class="cls-6" d="M368,232.55l62.11,77.26,147,22.32L488.77,294l-11-38.18ZM660.24,406,499.08,345,660.24,364.1Z" transform="translate(0.03)"/><polygon class="cls-5" points="502.71 660.24 582.7 599.08 627.35 611.17 660.27 551.64 660.27 660.24 502.71 660.24"/><path class="cls-3" d="M477.53,73.67A19.72,19.72,0,0,1,487,77.92c5.16-9,15.41-14.09,27.22-12.3a36.48,36.48,0,0,1,22.48,13.15,21.35,21.35,0,0,1,7.52-.16C556.51,80.47,566.5,92,566.5,104.29s-10,20.79-22.31,18.93a24.91,24.91,0,0,1-7.52-2.43c-5.61,5.15-13.6,7.7-22.48,6.36-11.81-1.78-22.06-10-27.22-20.53a15.46,15.46,0,0,1-9.44,1.4c-9.49-1.43-17.18-10.28-17.18-19.77S468,72.23,477.53,73.67Z" transform="translate(0.03)"/><polygon class="cls-3" points="513.45 91.65 551.12 99.65 588.79 107.65 551.12 104.27 513.45 100.88 475.78 92.88 438.11 84.89 475.78 88.27 513.45 91.65"/><path class="cls-3" d="M298.44,95.9a26.37,26.37,0,0,1,12.6,5.68c6.89-12,20.57-18.8,36.33-16.42a48.66,48.66,0,0,1,30,17.56,28.24,28.24,0,0,1,10-.22c16.44,2.48,29.76,17.82,29.76,34.26S403.81,164.51,387.4,162a33.32,33.32,0,0,1-10-3.25c-7.49,6.88-18.15,10.28-30,8.49-15.76-2.38-29.44-13.33-36.33-27.39a20.84,20.84,0,0,1-12.6,1.87c-12.66-1.92-22.92-13.73-22.92-26.39S285.81,94,298.44,95.9Z" transform="translate(0.03)"/><polygon class="cls-3" points="346.37 119.9 396.64 130.58 446.91 141.25 396.64 136.73 346.37 132.22 296.1 121.54 245.83 110.87 296.1 115.39 346.37 119.9"/><path class="cls-3" d="M522.87,201.67a12.48,12.48,0,0,1,5.91,2.66c3.24-5.63,9.66-8.83,17.06-7.71a22.86,22.86,0,0,1,14.09,8.25,13.09,13.09,0,0,1,4.71-.11,16.86,16.86,0,0,1,14,16.09c0,7.72-6.26,13-14,11.87a15.4,15.4,0,0,1-4.71-1.53,16.8,16.8,0,0,1-14.09,4,23.39,23.39,0,0,1-17-12.89,9.81,9.81,0,0,1-5.91.88,13,13,0,0,1-10.77-12.4,9,9,0,0,1,8.71-9.28A9.23,9.23,0,0,1,522.87,201.67Z" transform="translate(0.03)"/><polygon class="cls-3" points="545.39 212.92 568.99 217.93 592.6 222.94 568.99 220.82 545.39 218.7 521.78 213.69 498.17 208.68 521.78 210.8 545.39 212.92"/></svg>