<svg id="publicdomainvectors.org" xmlns="http://www.w3.org/2000/svg" viewBox="0 0 660.24 660.24"><defs><style>.cls-1{fill:#a7bbd6;}.cls-2{fill:#d2dfef;}.cls-2,.cls-3,.cls-4,.cls-5,.cls-6,.cls-7{fill-rule:evenodd;}.cls-3{fill:#e9f1fb;}.cls-4{fill:#564843;}.cls-5{fill:#493c36;}.cls-6{fill:#675954;}.cls-7{fill:#fff;}</style></defs><rect class="cls-1" width="660.24" height="660.24"/><polygon class="cls-2" points="660.24 113.42 660.24 0 190.26 0 61.9 0 660.24 113.42"/><path class="cls-3" d="M1.19,428.75v-96a24,24,0,0,1,20,23.63,23.81,23.81,0,0,1-2.71,11.07,31.73,31.73,0,0,1,12.61,6.69,12.81,12.81,0,0,1,19.55,16,23.42,23.42,0,0,1,12.79,5,22.84,22.84,0,0,1,26.16-4,20.7,20.7,0,0,1,40,7.09,17.29,17.29,0,0,1,9.07-2.55,17.49,17.49,0,0,1,6.33,1.18,22.35,22.35,0,0,1,13.86-12.29,21.17,21.17,0,0,1-.42-4.24,21.39,21.39,0,0,1,21.39-21.39,22.11,22.11,0,0,1,3.28.25,20,20,0,1,1,38.59,10.4,23.06,23.06,0,0,1,18.15,17.9,24.79,24.79,0,0,1,3-.18,24.4,24.4,0,0,1,20.58,11.27,29.32,29.32,0,0,1,24.22-24.38,25.81,25.81,0,1,1,30.77,15.48,29.3,29.3,0,0,1-51.76,27.48,24.42,24.42,0,0,1-45.36,6.05,21.12,21.12,0,0,1-38-4,22.32,22.32,0,0,1-31,4.76,17.44,17.44,0,0,1-30.95-8.76,20.7,20.7,0,0,1-20.12,2.7,22.79,22.79,0,0,1-35.38,11.91,23.48,23.48,0,0,1-37.68-5.22,31.89,31.89,0,0,1-27,4.15Z" transform="translate(-1.19 -1.33)"/><path class="cls-3" d="M1.19,1.33H174.83A128.82,128.82,0,0,1,1.19,191Z" transform="translate(-1.19 -1.33)"/><polygon class="cls-4" points="660.24 294.47 249.68 197.73 229.22 260.98 247.82 309.35 305.49 366.09 285.03 430.27 244.1 473.98 239.45 560.49 184.57 591.18 157.6 644.2 78.54 660.24 660.24 660.24 660.24 294.47"/><polygon class="cls-4" points="660.24 660.24 78.54 660.24 157.6 644.2 184.57 591.18 239.45 560.49 244.1 473.98 285.03 430.27 290.24 413.91 660.24 413.91 660.24 660.24"/><polygon class="cls-5" points="330.12 660.24 78.54 660.24 157.6 644.2 184.57 591.18 239.45 560.49 244.1 473.98 285.03 430.27 290.24 413.91 546.4 413.91 518.49 466.54 535.24 544.67 363.16 622.8 330.12 660.24"/><path class="cls-2" d="M148.09,40.94a24.65,24.65,0,1,1-24.64,24.65,24.64,24.64,0,0,1,24.64-24.65Zm43.26,67a9.3,9.3,0,1,1-9.31,9.3,9.3,9.3,0,0,1,9.31-9.3ZM85.77,111.63a13.49,13.49,0,1,1-13.48,13.48,13.49,13.49,0,0,1,13.48-13.48Zm0-93a20,20,0,1,1-20,20,20,20,0,0,1,20-20Zm-54.87,80a18.14,18.14,0,1,1-18.14,18.13A18.13,18.13,0,0,1,30.9,98.61Zm68.36,84.64a12.09,12.09,0,1,1-12.09,12.09,12.09,12.09,0,0,1,12.09-12.09Zm32.09-51.16a16.28,16.28,0,1,1-16.28,16.28A16.28,16.28,0,0,1,131.35,132.09Z" transform="translate(-1.19 -1.33)"/><polygon class="cls-2" points="247.82 309.35 236.66 261.44 255.26 208.66 660.24 294.47 247.82 195.64 227.36 262.38 247.82 309.35"/><polygon class="cls-5" points="236.66 261.44 349.21 343.29 546.4 413.91 290.24 413.91 305.49 366.09 247.82 309.35 236.66 261.44"/><path class="cls-6" d="M245.3,475.31l74.87,53.95,87.43.46L330.4,499,286.22,431.6,245.3,475.31Zm-4.65,86.51,58.59,41.38L185.77,592.51Z" transform="translate(-1.19 -1.33)"/><path class="cls-6" d="M369.21,233.88l62.11,77.26,147,22.32-88.36-38.14L479,257.14,369.21,233.88ZM661.43,407.29,500.27,346.36l161.16,19.07Z" transform="translate(-1.19 -1.33)"/><polygon class="cls-5" points="502.68 660.24 582.67 599.08 627.32 611.17 660.24 551.64 660.24 660.24 502.68 660.24"/><path class="cls-7" d="M478.72,75a19.73,19.73,0,0,1,9.44,4.25c5.16-9,15.41-14.09,27.22-12.3A36.49,36.49,0,0,1,537.86,80.1a21.44,21.44,0,0,1,7.52-.16c12.32,1.86,22.31,13.36,22.31,25.68s-10,20.79-22.31,18.93a24.91,24.91,0,0,1-7.52-2.43c-5.61,5.15-13.6,7.7-22.48,6.36-11.81-1.78-22.06-10-27.22-20.53a15.5,15.5,0,0,1-9.44,1.4c-9.49-1.43-17.18-10.28-17.18-19.77S469.23,73.56,478.72,75Z" transform="translate(-1.19 -1.33)"/><polygon class="cls-7" points="513.42 91.65 551.09 99.65 588.76 107.65 551.09 104.27 513.42 100.88 475.75 92.88 438.08 84.89 475.75 88.27 513.42 91.65"/><path class="cls-7" d="M299.63,97.23a26.3,26.3,0,0,1,12.6,5.68c6.89-12,20.57-18.8,36.33-16.42a48.69,48.69,0,0,1,30,17.56,28.27,28.27,0,0,1,10-.22c16.44,2.48,29.76,17.82,29.76,34.26S405,165.84,388.59,163.36a33.19,33.19,0,0,1-10-3.25c-7.49,6.88-18.15,10.28-30,8.49-15.76-2.38-29.44-13.33-36.33-27.39a20.83,20.83,0,0,1-12.6,1.87c-12.66-1.92-22.92-13.73-22.92-26.39S287,95.32,299.63,97.23Z" transform="translate(-1.19 -1.33)"/><polygon class="cls-7" points="346.34 119.9 396.61 130.58 446.88 141.25 396.61 136.73 346.34 132.22 296.07 121.54 245.8 110.87 296.07 115.39 346.34 119.9"/><path class="cls-7" d="M524.06,203a12.4,12.4,0,0,1,5.91,2.66c3.24-5.63,9.66-8.83,17.06-7.71a22.88,22.88,0,0,1,14.09,8.25,13.21,13.21,0,0,1,4.71-.11,16.86,16.86,0,0,1,14,16.09c0,7.72-6.26,13-14,11.87a15.4,15.4,0,0,1-4.71-1.53,16.8,16.8,0,0,1-14.09,4A23.4,23.4,0,0,1,530,223.63a9.75,9.75,0,0,1-5.91.88,13,13,0,0,1-10.77-12.4A9,9,0,0,1,524.06,203Z" transform="translate(-1.19 -1.33)"/><polygon class="cls-7" points="545.36 212.92 568.96 217.93 592.57 222.94 568.96 220.82 545.36 218.7 521.75 213.69 498.14 208.68 521.75 210.8 545.36 212.92"/></svg>