<?xml version="1.0" standalone="no"?>
<!DOCTYPE svg PUBLIC "-//W3C//DTD SVG 20010904//EN"
 "http://www.w3.org/TR/2001/REC-SVG-20010904/DTD/svg10.dtd">
<svg version="1.0" xmlns="http://www.w3.org/2000/svg"
 width="700.000000pt" height="700.000000pt" viewBox="0 0 700.000000 700.000000"
 preserveAspectRatio="xMidYMid meet">
<metadata>
Created by potrace 1.11, written by Peter Selinger 2001-2013
</metadata>
<g transform="translate(0.000000,700.000000) scale(0.100000,-0.100000)"
fill="#000000" stroke="none">
<path d="M4435 5643 c-16 -1 -79 -8 -140 -14 -800 -79 -1381 -464 -1741 -1153
-156 -300 -242 -537 -439 -1216 -72 -248 -147 -478 -196 -603 -155 -390 -385
-670 -739 -899 -284 -184 -702 -339 -1047 -388 -46 -7 -83 -14 -83 -16 0 -2
1488 -3 3308 -3 1819 1 3294 4 3277 6 -16 2 -97 10 -180 19 -372 39 -668 114
-950 240 -136 62 -355 191 -395 234 -3 3 -27 23 -55 45 -71 56 -197 188 -259
270 -179 236 -286 503 -331 825 -20 139 -13 437 13 558 31 139 88 249 176 336
39 39 94 83 122 98 255 134 580 83 784 -123 175 -177 242 -416 207 -744 -42
-397 -280 -682 -617 -740 -19 -3 -36 -8 -38 -10 -11 -10 254 -71 366 -83 138
-15 380 -6 492 17 255 54 468 169 642 345 184 186 300 409 360 690 28 133 34
407 12 546 -99 622 -515 1154 -1149 1472 -283 142 -590 241 -881 282 -88 13
-432 19 -519 9z"/>
</g>
</svg>
