<svg xmlns="http://www.w3.org/2000/svg" viewBox="0 0 2040.94 160"><path d="M1670.27,210.75c-157.74-55.57-161.89-63.48-202.42-65.43-95.15-4.57-108,37.33-202.42,32.71-98.57-4.82-106.92-51.63-202.42-54.52-35.57-1.07-91.67,16.24-202.41,50.91-154.88,48.49-159.3,57-202.42,58.13-92.94,2.37-96.76-36.72-202.42-32.71-30.95,1.18-99.84,7.16-168.64,29.1-10.26,3.28-16.64,5.67-33.78,10.91-26.33,8.05-68.73,20.87-124,30.51A915.59,915.59,0,0,1,0,283.46H2040.94c-60.27,0-133.42-6.34-168.25-10.9C1830.67,267.06,1776.63,248.21,1670.27,210.75Z" transform="translate(0 -123.46)" style="fill:#606060"/></svg>