<svg xmlns="http://www.w3.org/2000/svg" viewBox="0 0 1440 320"><path fill="#0099ff" fill-opacity="1" d="M0,256L26.7,240C53.3,224,107,192,160,197.3C213.3,203,267,245,320,245.3C373.3,245,427,203,480,160C533.3,117,587,75,640,85.3C693.3,96,747,160,800,165.3C853.3,171,907,117,960,117.3C1013.3,117,1067,171,1120,213.3C1173.3,256,1227,288,1280,304C1333.3,320,1387,320,1413,320L1440,320L1440,320L1413.3,320C1386.7,320,1333,320,1280,320C1226.7,320,1173,320,1120,320C1066.7,320,1013,320,960,320C906.7,320,853,320,800,320C746.7,320,693,320,640,320C586.7,320,533,320,480,320C426.7,320,373,320,320,320C266.7,320,213,320,160,320C106.7,320,53,320,27,320L0,320Z"></path></svg>