<?xml version="1.0" encoding="utf-8"?>
<!-- Generator: Adobe Illustrator 24.2.1, SVG Export Plug-In . SVG Version: 6.00 Build 0)  -->
<svg version="1.1" id="Laag_1" xmlns="http://www.w3.org/2000/svg" xmlns:xlink="http://www.w3.org/1999/xlink" x="0px" y="0px"
	 viewBox="0 0 1440 320" style="enable-background:new 0 0 1440 320;" xml:space="preserve">
<style type="text/css">
	.st0{fill:#606060;}
</style>
<path class="st0" d="M0,256l26.7-16c26.6-16,80.3-48,133.3-42.7c53.3,5.7,107,47.7,160,48C373.3,245,427,203,480,160
	c53.3-43,107-85,160-74.7c53.3,10.7,107,74.7,160,80c53.3,5.7,107-48.3,160-48c53.3-0.3,107,53.7,160,96
	c53.3,42.7,107,74.7,160,90.7c53.3,16,107,16,133,16h27l0,0h-26.7c-26.6,0-80.3,0-133.3,0c-53.3,0-107,0-160,0c-53.3,0-107,0-160,0
	c-53.3,0-107,0-160,0c-53.3,0-107,0-160,0c-53.3,0-107,0-160,0c-53.3,0-107,0-160,0c-53.3,0-107,0-160,0c-53.3,0-107,0-133,0H0V256z
	"/>
</svg>
